<svg width="20" height="21" viewBox="0 0 20 21" fill="none" xmlns="http://www.w3.org/2000/svg">
<path d="M12 17C12.2652 17 12.5195 16.8946 12.7071 16.7071C12.8946 16.5196 13 16.2652 13 16V14C13 13.7348 12.8946 13.4804 12.7071 13.2929C12.5195 13.1054 12.2652 13 12 13C11.7348 13 11.4804 13.1054 11.2929 13.2929C11.1053 13.4804 11 13.7348 11 14V16C11 16.2652 11.1053 16.5196 11.2929 16.7071C11.4804 16.8946 11.7348 17 12 17ZM7.99998 17C8.26519 17 8.51955 16.8946 8.70708 16.7071C8.89462 16.5196 8.99998 16.2652 8.99998 16V14C8.99998 13.7348 8.89462 13.4804 8.70708 13.2929C8.51955 13.1054 8.26519 13 7.99998 13C7.73476 13 7.48041 13.1054 7.29287 13.2929C7.10533 13.4804 6.99998 13.7348 6.99998 14V16C6.99998 16.2652 7.10533 16.5196 7.29287 16.7071C7.48041 16.8946 7.73476 17 7.99998 17ZM17 5H15.62L13.89 1.55C13.8371 1.42305 13.7586 1.30837 13.6594 1.21312C13.5603 1.11788 13.4425 1.04411 13.3135 0.996439C13.1845 0.948764 13.0471 0.928204 12.9098 0.936044C12.7725 0.943885 12.6383 0.979956 12.5156 1.04201C12.3929 1.10405 12.2843 1.19075 12.1966 1.29666C12.1089 1.40258 12.044 1.52545 12.0059 1.65759C11.9678 1.78973 11.9574 1.9283 11.9753 2.06464C11.9932 2.20099 12.0391 2.33217 12.11 2.45L13.38 5H6.61998L7.88998 2.45C7.98704 2.2169 7.99234 1.95572 7.9048 1.71888C7.81726 1.48205 7.64337 1.28709 7.41804 1.17316C7.19271 1.05923 6.93262 1.03476 6.68999 1.10466C6.44736 1.17455 6.24016 1.33365 6.10998 1.55L4.37998 5H2.99998C2.29316 5.01075 1.61285 5.27074 1.07903 5.73413C0.545198 6.19752 0.19215 6.83452 0.0821463 7.5328C-0.0278569 8.23109 0.112252 8.94578 0.477762 9.55085C0.843271 10.1559 1.4107 10.6125 2.07998 10.84L2.81998 18.3C2.8946 19.0426 3.24332 19.7307 3.79805 20.2299C4.35278 20.7292 5.07368 21.0037 5.81998 21H14.2C14.9463 21.0037 15.6672 20.7292 16.2219 20.2299C16.7766 19.7307 17.1254 19.0426 17.2 18.3L17.94 10.84C18.6107 10.6118 19.179 10.1536 19.5443 9.54648C19.9095 8.93939 20.0481 8.22263 19.9355 7.52314C19.823 6.82365 19.4664 6.18658 18.9291 5.72477C18.3918 5.26296 17.7084 5.00621 17 5ZM15.19 18.1C15.1651 18.3475 15.0489 18.5769 14.864 18.7433C14.679 18.9097 14.4387 19.0012 14.19 19H5.80998C5.56121 19.0012 5.32091 18.9097 5.136 18.7433C4.95109 18.5769 4.83485 18.3475 4.80998 18.1L4.09998 11H15.9L15.19 18.1ZM17 9H2.99998C2.73476 9 2.48041 8.89464 2.29287 8.7071C2.10533 8.51957 1.99998 8.26521 1.99998 8C1.99998 7.73478 2.10533 7.48043 2.29287 7.29289C2.48041 7.10535 2.73476 7 2.99998 7H17C17.2652 7 17.5195 7.10535 17.7071 7.29289C17.8946 7.48043 18 7.73478 18 8C18 8.26521 17.8946 8.51957 17.7071 8.7071C17.5195 8.89464 17.2652 9 17 9Z" fill="black"/>
</svg>
