<svg width="33" height="33" viewBox="0 0 33 33" fill="none" xmlns="http://www.w3.org/2000/svg">
<path d="M22.3334 15.7274H17.3334V10.7274C17.3334 10.5064 17.2456 10.2944 17.0893 10.1381C16.933 9.98184 16.7211 9.89404 16.5 9.89404C16.279 9.89404 16.0671 9.98184 15.9108 10.1381C15.7545 10.2944 15.6667 10.5064 15.6667 10.7274V15.7274H10.6667C10.4457 15.7274 10.2337 15.8152 10.0775 15.9715C9.92117 16.1277 9.83337 16.3397 9.83337 16.5607C9.83337 16.7817 9.92117 16.9937 10.0775 17.15C10.2337 17.3062 10.4457 17.394 10.6667 17.394H15.6667V22.394C15.6667 22.6151 15.7545 22.827 15.9108 22.9833C16.0671 23.1396 16.279 23.2274 16.5 23.2274C16.7211 23.2274 16.933 23.1396 17.0893 22.9833C17.2456 22.827 17.3334 22.6151 17.3334 22.394V17.394H22.3334C22.5544 17.394 22.7664 17.3062 22.9226 17.15C23.0789 16.9937 23.1667 16.7817 23.1667 16.5607C23.1667 16.3397 23.0789 16.1277 22.9226 15.9715C22.7664 15.8152 22.5544 15.7274 22.3334 15.7274Z" fill="#65885D"/>
<rect x="1" y="1.06067" width="31" height="31" rx="7.5" stroke="#65885D"/>
</svg>
