<svg width="20" height="21" viewBox="0 0 20 21" fill="none" xmlns="http://www.w3.org/2000/svg">
<path d="M12.0003 17.0001C12.2655 17.0001 12.5199 16.8948 12.7074 16.7073C12.8949 16.5197 13.0003 16.2654 13.0003 16.0001V14.0001C13.0003 13.7349 12.8949 13.4806 12.7074 13.293C12.5199 13.1055 12.2655 13.0001 12.0003 13.0001C11.7351 13.0001 11.4807 13.1055 11.2932 13.293C11.1056 13.4806 11.0003 13.7349 11.0003 14.0001V16.0001C11.0003 16.2654 11.1056 16.5197 11.2932 16.7073C11.4807 16.8948 11.7351 17.0001 12.0003 17.0001ZM8.00028 17.0001C8.2655 17.0001 8.51985 16.8948 8.70739 16.7073C8.89492 16.5197 9.00028 16.2654 9.00028 16.0001V14.0001C9.00028 13.7349 8.89492 13.4806 8.70739 13.293C8.51985 13.1055 8.2655 13.0001 8.00028 13.0001C7.73506 13.0001 7.48071 13.1055 7.29317 13.293C7.10564 13.4806 7.00028 13.7349 7.00028 14.0001V16.0001C7.00028 16.2654 7.10564 16.5197 7.29317 16.7073C7.48071 16.8948 7.73506 17.0001 8.00028 17.0001ZM17.0003 5.00015H15.6203L13.8903 1.55015C13.8374 1.4232 13.7589 1.30852 13.6598 1.21328C13.5606 1.11803 13.4428 1.04427 13.3138 0.996591C13.1848 0.948917 13.0474 0.928357 12.9101 0.936197C12.7728 0.944037 12.6386 0.980109 12.5159 1.04216C12.3932 1.10421 12.2846 1.1909 12.1969 1.29682C12.1092 1.40274 12.0443 1.5256 12.0062 1.65774C11.9681 1.78988 11.9577 1.92845 11.9756 2.0648C11.9935 2.20114 12.0394 2.33232 12.1103 2.45015L13.3803 5.00015H6.62028L7.89028 2.45015C7.98735 2.21706 7.99264 1.95587 7.9051 1.71904C7.81756 1.4822 7.64367 1.28725 7.41834 1.17331C7.19301 1.05938 6.93292 1.03491 6.6903 1.10481C6.44767 1.17471 6.24046 1.3338 6.11028 1.55015L4.38028 5.00015H3.00028C2.29347 5.0109 1.61316 5.2709 1.07933 5.73428C0.545503 6.19767 0.192455 6.83468 0.0824515 7.53296C-0.0275518 8.23124 0.112557 8.94594 0.478067 9.551C0.843577 10.1561 1.41101 10.6126 2.08028 10.8401L2.82028 18.3001C2.8949 19.0427 3.24363 19.7308 3.79835 20.2301C4.35308 20.7293 5.07398 21.0039 5.82028 21.0001H14.2003C14.9466 21.0039 15.6675 20.7293 16.2222 20.2301C16.7769 19.7308 17.1257 19.0427 17.2003 18.3001L17.9403 10.8401C18.611 10.6119 19.1793 10.1537 19.5446 9.54663C19.9098 8.93955 20.0484 8.22278 19.9359 7.52329C19.8233 6.8238 19.4667 6.18674 18.9294 5.72492C18.3921 5.26311 17.7087 5.00636 17.0003 5.00015ZM15.1903 18.1001C15.1654 18.3477 15.0492 18.577 14.8643 18.7435C14.6793 18.9099 14.439 19.0014 14.1903 19.0001H5.81028C5.56151 19.0014 5.32121 18.9099 5.1363 18.7435C4.9514 18.577 4.83515 18.3477 4.81028 18.1001L4.10028 11.0001H15.9003L15.1903 18.1001ZM17.0003 9.00015H3.00028C2.73506 9.00015 2.48071 8.89479 2.29317 8.70726C2.10564 8.51972 2.00028 8.26537 2.00028 8.00015C2.00028 7.73493 2.10564 7.48058 2.29317 7.29304C2.48071 7.10551 2.73506 7.00015 3.00028 7.00015H17.0003C17.2655 7.00015 17.5199 7.10551 17.7074 7.29304C17.8949 7.48058 18.0003 7.73493 18.0003 8.00015C18.0003 8.26537 17.8949 8.51972 17.7074 8.70726C17.5199 8.89479 17.2655 9.00015 17.0003 9.00015Z" fill="white"/>
</svg>
