<svg width="40" height="40" viewBox="0 0 40 40" fill="none" xmlns="http://www.w3.org/2000/svg">
<path d="M23.54 19.29L17.88 13.64C17.787 13.5463 17.6764 13.4719 17.5546 13.4211C17.4327 13.3704 17.302 13.3442 17.17 13.3442C17.038 13.3442 16.9073 13.3704 16.7854 13.4211C16.6635 13.4719 16.5529 13.5463 16.46 13.64C16.2737 13.8274 16.1692 14.0809 16.1692 14.345C16.1692 14.6092 16.2737 14.8627 16.46 15.05L21.41 20.05L16.46 25C16.2737 25.1874 16.1692 25.4409 16.1692 25.705C16.1692 25.9692 16.2737 26.2227 16.46 26.41C16.5526 26.5045 16.663 26.5797 16.7849 26.6312C16.9068 26.6827 17.0377 26.7095 17.17 26.71C17.3023 26.7095 17.4332 26.6827 17.555 26.6312C17.6769 26.5797 17.7874 26.5045 17.88 26.41L23.54 20.76C23.6415 20.6664 23.7225 20.5527 23.7779 20.4262C23.8333 20.2997 23.8619 20.1631 23.8619 20.025C23.8619 19.8869 23.8333 19.7503 23.7779 19.6238C23.7225 19.4973 23.6415 19.3837 23.54 19.29Z" fill="#B8BFB8"/>
<rect x="0.5" y="0.5" width="39" height="39" rx="7.5" stroke="#65885D"/>
</svg>
