<svg width="12" height="13" viewBox="0 0 12 13" fill="none" xmlns="http://www.w3.org/2000/svg">
<path d="M6.9999 9.49995C7.1325 9.49995 7.25968 9.44727 7.35345 9.35351C7.44722 9.25974 7.4999 9.13256 7.4999 8.99995V7.99995C7.4999 7.86734 7.44722 7.74017 7.35345 7.6464C7.25968 7.55263 7.1325 7.49995 6.9999 7.49995C6.86729 7.49995 6.74011 7.55263 6.64634 7.6464C6.55258 7.74017 6.4999 7.86734 6.4999 7.99995V8.99995C6.4999 9.13256 6.55258 9.25974 6.64634 9.35351C6.74011 9.44727 6.86729 9.49995 6.9999 9.49995ZM4.9999 9.49995C5.1325 9.49995 5.25968 9.44727 5.35345 9.35351C5.44722 9.25974 5.4999 9.13256 5.4999 8.99995V7.99995C5.4999 7.86734 5.44722 7.74017 5.35345 7.6464C5.25968 7.55263 5.1325 7.49995 4.9999 7.49995C4.86729 7.49995 4.74011 7.55263 4.64634 7.6464C4.55257 7.74017 4.4999 7.86734 4.4999 7.99995V8.99995C4.4999 9.13256 4.55257 9.25974 4.64634 9.35351C4.74011 9.44727 4.86729 9.49995 4.9999 9.49995ZM9.4999 3.49995H8.8099L7.9449 1.77495C7.91847 1.71148 7.87923 1.65414 7.82963 1.60652C7.78004 1.55889 7.72116 1.52201 7.65666 1.49817C7.59217 1.47434 7.52346 1.46406 7.45481 1.46798C7.38617 1.4719 7.31907 1.48993 7.25771 1.52096C7.19635 1.55198 7.14205 1.59533 7.0982 1.64829C7.05435 1.70125 7.02189 1.76268 7.00286 1.82875C6.98382 1.89482 6.97862 1.9641 6.98758 2.03228C6.99653 2.10045 7.01945 2.16604 7.0549 2.22495L7.6899 3.49995H4.3099L4.9449 2.22495C4.99343 2.10841 4.99608 1.97781 4.95231 1.8594C4.90854 1.74098 4.82159 1.6435 4.70893 1.58654C4.59626 1.52957 4.46622 1.51733 4.3449 1.55228C4.22359 1.58723 4.11999 1.66678 4.0549 1.77495L3.1899 3.49995H2.4999C2.14649 3.50533 1.80633 3.63533 1.53942 3.86702C1.27251 4.09871 1.09598 4.41722 1.04098 4.76636C0.98598 5.1155 1.05603 5.47285 1.23879 5.77538C1.42154 6.07791 1.70526 6.30619 2.0399 6.41995L2.4099 10.15C2.44721 10.5212 2.62157 10.8653 2.89893 11.1149C3.1763 11.3645 3.53675 11.5018 3.9099 11.5H8.0999C8.47305 11.5018 8.8335 11.3645 9.11086 11.1149C9.38822 10.8653 9.56259 10.5212 9.5999 10.15L9.9699 6.41995C10.3053 6.30585 10.5894 6.07674 10.772 5.77319C10.9547 5.46965 11.024 5.11127 10.9677 4.76152C10.9114 4.41178 10.7331 4.09325 10.4645 3.86234C10.1958 3.63143 9.85413 3.50306 9.4999 3.49995ZM8.5949 10.05C8.58246 10.1737 8.52434 10.2884 8.43188 10.3716C8.33943 10.4548 8.21928 10.5006 8.0949 10.5H3.9049C3.78051 10.5006 3.66036 10.4548 3.56791 10.3716C3.47545 10.2884 3.41733 10.1737 3.4049 10.05L3.0499 6.49995H8.9499L8.5949 10.05ZM9.4999 5.49995H2.4999C2.36729 5.49995 2.24011 5.44727 2.14634 5.35351C2.05257 5.25974 1.9999 5.13256 1.9999 4.99995C1.9999 4.86734 2.05257 4.74017 2.14634 4.6464C2.24011 4.55263 2.36729 4.49995 2.4999 4.49995H9.4999C9.6325 4.49995 9.75968 4.55263 9.85345 4.6464C9.94722 4.74017 9.9999 4.86734 9.9999 4.99995C9.9999 5.13256 9.94722 5.25974 9.85345 5.35351C9.75968 5.44727 9.6325 5.49995 9.4999 5.49995Z" fill="#B8B9B6"/>
</svg>
