<svg width="20" height="20" viewBox="0 0 20 20" fill="none" xmlns="http://www.w3.org/2000/svg">
<path d="M9 16.821V12C9.00076 11.8684 8.97554 11.7379 8.92577 11.6161C8.87601 11.4943 8.80268 11.3834 8.71 11.29L8.35678 11.6439L8.35575 11.6429M9 16.821L8.35575 11.6429M9 16.821L8.77639 16.9328L9 17.38H9.5V17.13L11 16.38L9 16.821ZM8.35575 11.6429C8.3555 11.6426 8.35526 11.6424 8.35501 11.6421L3.05678 6.35389L2.20128 5.5H3.41H16.59H17.7987L16.9432 6.35389L11.645 11.6421C11.6447 11.6424 11.6445 11.6426 11.6442 11.6429C11.5983 11.6894 11.5619 11.7446 11.5371 11.8052C11.5122 11.8661 11.4996 11.9313 11.5 11.9971L11.5 12L11.5 16.38V16.689L11.2236 16.8272L9.22361 17.8272L8.5 18.189V17.38V12V11.9971H8.50001C8.50039 11.9313 8.48778 11.8661 8.46289 11.8052C8.43814 11.7446 8.40174 11.6894 8.35575 11.6429ZM0.5 4.17017V4.17V3C0.5 2.33696 0.763392 1.70107 1.23223 1.23223C1.70107 0.763392 2.33696 0.5 3 0.5H17C17.663 0.5 18.2989 0.763392 18.7678 1.23223C19.2366 1.70107 19.5 2.33696 19.5 3V4.16219C19.4887 4.50621 19.4065 4.84423 19.2586 5.15506L19.21 5.25705V5.31943C19.0975 5.54759 18.948 5.75581 18.7674 5.93554L18.7664 5.93645L12.6464 12.0564L12.5 12.2029V12.41V16.999C12.4996 17.0912 12.4738 17.1814 12.4253 17.2598C12.3769 17.3381 12.3078 17.4016 12.2257 17.4431C12.2255 17.4433 12.2252 17.4434 12.225 17.4435L8.22639 19.4428L8.22638 19.4428L8.222 19.445C8.15261 19.4806 8.07587 19.4994 7.99792 19.5C7.9048 19.5002 7.81349 19.4744 7.73425 19.4255C7.66253 19.3805 7.60341 19.3181 7.56243 19.2439C7.52132 19.1696 7.49983 19.086 7.5 19.001V19V12.41V12.2019L7.3524 12.0553L1.19265 5.93554C1.19263 5.93553 1.19262 5.93551 1.1926 5.9355C1.01197 5.75578 0.862476 5.54757 0.75 5.31943V5.26574L0.708333 5.17017C0.570805 4.85473 0.499881 4.51429 0.5 4.17017ZM7 12.41V19V12.41ZM18 4.5H18.5V4V3C18.5 2.60218 18.342 2.22065 18.0607 1.93934C17.7794 1.65804 17.3978 1.5 17 1.5H3C2.60217 1.5 2.22064 1.65804 1.93934 1.93934C1.65804 2.22064 1.5 2.60217 1.5 3V4V4.5H2H18Z" fill="#3F3F3F" stroke="#3F3F3F"/>
</svg>
