<svg width="24" height="24" viewBox="0 0 24 24" fill="none" xmlns="http://www.w3.org/2000/svg">
<path d="M12.5182 12.7071L4.17274 12.7071C4.02202 12.7071 3.8815 12.6495 3.7811 12.5533C3.68142 12.4577 3.62955 12.3327 3.62955 12.2071C3.62955 12.0815 3.68142 11.9565 3.7811 11.861C3.8815 11.7647 4.02202 11.7071 4.17274 11.7071L12.5182 11.7071C12.6689 11.7071 12.8095 11.7647 12.9099 11.861C13.0096 11.9565 13.0614 12.0815 13.0614 12.2071C13.0614 12.3327 13.0096 12.4577 12.9099 12.5533C12.8095 12.6495 12.6689 12.7071 12.5182 12.7071ZM15.6477 8.5L1.04313 8.5C0.892403 8.5 0.751882 8.4424 0.651482 8.34616C0.551803 8.25061 0.49994 8.12562 0.49994 8C0.49994 7.87437 0.551803 7.74939 0.651483 7.65384C0.751883 7.55759 0.892404 7.5 1.04313 7.5L15.6477 7.5C15.7985 7.5 15.939 7.55759 16.0394 7.65384C16.1391 7.7494 16.1909 7.87438 16.1909 8C16.1909 8.12562 16.1391 8.2506 16.0394 8.34616C15.939 8.44241 15.7985 8.5 15.6477 8.5ZM10.4319 17L6.25911 17C6.10839 17 5.96787 16.9424 5.86747 16.8462C5.76779 16.7506 5.71593 16.6256 5.71593 16.5C5.71593 16.3744 5.76779 16.2494 5.86747 16.1538C5.96787 16.0576 6.10839 16 6.25911 16L10.4319 16C10.5826 16 10.7231 16.0576 10.8235 16.1538C10.9232 16.2494 10.975 16.3744 10.975 16.5C10.975 16.6256 10.9232 16.7506 10.8235 16.8462C10.7231 16.9424 10.5826 17 10.4319 17Z" fill="black" stroke="#3F3F3F"/>
<path d="M23.488 12.4428C23.4961 12.4616 23.5 12.4809 23.5 12.4999C23.5 12.5189 23.4961 12.5382 23.488 12.557C23.4798 12.5758 23.4672 12.5943 23.4498 12.6109L23.4498 12.6109L23.4483 12.6123L19.9763 15.9406C19.959 15.9559 19.9378 15.9688 19.9134 15.9778L19.9029 15.9818L19.8925 15.9861C19.8714 15.9951 19.8478 16 19.8233 16C19.7989 16 19.7752 15.9951 19.7541 15.9861L19.7438 15.9818L19.7333 15.9778C19.7089 15.9688 19.6877 15.9559 19.6704 15.9406L16.1984 12.6123L15.8655 12.9595L16.1984 12.6123C16.1634 12.5787 16.1478 12.5379 16.1478 12.4999C16.1478 12.462 16.1634 12.4211 16.1984 12.3875C16.2341 12.3533 16.2869 12.3305 16.3461 12.3305C16.4053 12.3305 16.458 12.3532 16.4937 12.3874C16.4938 12.3874 16.4938 12.3875 16.4939 12.3875L18.7813 14.587L19.6279 15.4009V14.2266V9.16665C19.6279 9.12944 19.6431 9.08925 19.6776 9.0562L19.3348 8.69861L19.6776 9.0562C19.7128 9.02247 19.7648 9 19.8233 9C19.8818 9 19.9339 9.02247 19.9691 9.0562C20.0036 9.08925 20.0188 9.12944 20.0188 9.16665V14.2266V15.4009L20.8653 14.587L23.1533 12.387L23.1543 12.3861C23.1715 12.3695 23.1932 12.3551 23.2185 12.345C23.2439 12.3349 23.2719 12.3294 23.3006 12.3294C23.3292 12.3294 23.3572 12.3349 23.3826 12.345L23.568 11.8807L23.3826 12.345C23.4079 12.3551 23.4296 12.3695 23.4468 12.3861L23.4468 12.3861L23.4498 12.389C23.4672 12.4055 23.4798 12.424 23.488 12.4428ZM23.488 12.4428L23.9465 12.2435M23.488 12.4428C23.488 12.4428 23.488 12.4428 23.488 12.4428L23.9465 12.2435M23.9465 12.2435C23.9112 12.1623 23.8595 12.0886 23.7943 12.0266V12.9732C23.8595 12.9113 23.9112 12.8375 23.9465 12.7563C23.9819 12.6751 24 12.5879 24 12.4999C24 12.4119 23.9819 12.3248 23.9465 12.2435Z" fill="black" stroke="#3F3F3F"/>
</svg>
