<svg width="17" height="20" viewBox="0 0 17 20" fill="none" xmlns="http://www.w3.org/2000/svg">
<path d="M16.5 10C16.5 9.73478 16.3946 9.48043 16.2071 9.29289C16.0196 9.10536 15.7652 9 15.5 9H7.91L10.21 6.71C10.3032 6.61676 10.3772 6.50607 10.4277 6.38425C10.4781 6.26243 10.5041 6.13186 10.5041 6C10.5041 5.86814 10.4781 5.73757 10.4277 5.61575C10.3772 5.49393 10.3032 5.38324 10.21 5.29C10.1168 5.19676 10.0061 5.1228 9.88425 5.07234C9.76243 5.02188 9.63186 4.99591 9.5 4.99591C9.36814 4.99591 9.23757 5.02188 9.11575 5.07234C8.99393 5.1228 8.88324 5.19676 8.79 5.29L4.79 9.29C4.69896 9.3851 4.62759 9.49725 4.58 9.62C4.47998 9.86346 4.47998 10.1365 4.58 10.38C4.62759 10.5028 4.69896 10.6149 4.79 10.71L8.79 14.71C8.88296 14.8037 8.99356 14.8781 9.11542 14.9289C9.23728 14.9797 9.36799 15.0058 9.5 15.0058C9.63201 15.0058 9.76272 14.9797 9.88458 14.9289C10.0064 14.8781 10.117 14.8037 10.21 14.71C10.3037 14.617 10.3781 14.5064 10.4289 14.3846C10.4797 14.2627 10.5058 14.132 10.5058 14C10.5058 13.868 10.4797 13.7373 10.4289 13.6154C10.3781 13.4936 10.3037 13.383 10.21 13.29L7.91 11H15.5C15.7652 11 16.0196 10.8946 16.2071 10.7071C16.3946 10.5196 16.5 10.2652 16.5 10ZM13.5 0H3.5C2.70435 0 1.94129 0.316071 1.37868 0.87868C0.816071 1.44129 0.5 2.20435 0.5 3V17C0.5 17.7956 0.816071 18.5587 1.37868 19.1213C1.94129 19.6839 2.70435 20 3.5 20H13.5C14.2956 20 15.0587 19.6839 15.6213 19.1213C16.1839 18.5587 16.5 17.7956 16.5 17V14C16.5 13.7348 16.3946 13.4804 16.2071 13.2929C16.0196 13.1054 15.7652 13 15.5 13C15.2348 13 14.9804 13.1054 14.7929 13.2929C14.6054 13.4804 14.5 13.7348 14.5 14V17C14.5 17.2652 14.3946 17.5196 14.2071 17.7071C14.0196 17.8946 13.7652 18 13.5 18H3.5C3.23478 18 2.98043 17.8946 2.79289 17.7071C2.60536 17.5196 2.5 17.2652 2.5 17V3C2.5 2.73478 2.60536 2.48043 2.79289 2.29289C2.98043 2.10536 3.23478 2 3.5 2H13.5C13.7652 2 14.0196 2.10536 14.2071 2.29289C14.3946 2.48043 14.5 2.73478 14.5 3V6C14.5 6.26522 14.6054 6.51957 14.7929 6.70711C14.9804 6.89464 15.2348 7 15.5 7C15.7652 7 16.0196 6.89464 16.2071 6.70711C16.3946 6.51957 16.5 6.26522 16.5 6V3C16.5 2.20435 16.1839 1.44129 15.6213 0.87868C15.0587 0.316071 14.2956 0 13.5 0Z" fill="white"/>
</svg>
