<svg width="12" height="13" viewBox="0 0 12 13" fill="none" xmlns="http://www.w3.org/2000/svg">
<path d="M2 6.5C2 6.63261 2.05268 6.75979 2.14645 6.85355C2.24021 6.94732 2.36739 7 2.5 7H6.295L5.145 8.145C5.09814 8.19148 5.06094 8.24678 5.03555 8.30771C5.01017 8.36864 4.9971 8.43399 4.9971 8.5C4.9971 8.56601 5.01017 8.63136 5.03555 8.69229C5.06094 8.75322 5.09814 8.80852 5.145 8.855C5.19148 8.90186 5.24678 8.93906 5.30771 8.96445C5.36864 8.98983 5.43399 9.0029 5.5 9.0029C5.56601 9.0029 5.63136 8.98983 5.69229 8.96445C5.75322 8.93906 5.80852 8.90186 5.855 8.855L7.855 6.855C7.90052 6.80745 7.9362 6.75138 7.96 6.69C8.01001 6.56827 8.01001 6.43173 7.96 6.31C7.9362 6.24862 7.90052 6.19255 7.855 6.145L5.855 4.145C5.80838 4.09838 5.75304 4.0614 5.69212 4.03617C5.63121 4.01094 5.56593 3.99795 5.5 3.99795C5.43407 3.99795 5.36879 4.01094 5.30788 4.03617C5.24696 4.0614 5.19162 4.09838 5.145 4.145C5.09838 4.19162 5.0614 4.24696 5.03617 4.30788C5.01094 4.36879 4.99795 4.43407 4.99795 4.5C4.99795 4.56593 5.01094 4.63121 5.03617 4.69212C5.0614 4.75304 5.09838 4.80838 5.145 4.855L6.295 6H2.5C2.36739 6 2.24021 6.05268 2.14645 6.14645C2.05268 6.24021 2 6.36739 2 6.5ZM8.5 1.5H3.5C3.10218 1.5 2.72064 1.65804 2.43934 1.93934C2.15804 2.22064 2 2.60218 2 3V4.5C2 4.63261 2.05268 4.75979 2.14645 4.85355C2.24021 4.94732 2.36739 5 2.5 5C2.63261 5 2.75979 4.94732 2.85355 4.85355C2.94732 4.75979 3 4.63261 3 4.5V3C3 2.86739 3.05268 2.74021 3.14645 2.64645C3.24021 2.55268 3.36739 2.5 3.5 2.5H8.5C8.63261 2.5 8.75979 2.55268 8.85355 2.64645C8.94732 2.74021 9 2.86739 9 3V10C9 10.1326 8.94732 10.2598 8.85355 10.3536C8.75979 10.4473 8.63261 10.5 8.5 10.5H3.5C3.36739 10.5 3.24021 10.4473 3.14645 10.3536C3.05268 10.2598 3 10.1326 3 10V8.5C3 8.36739 2.94732 8.24021 2.85355 8.14645C2.75979 8.05268 2.63261 8 2.5 8C2.36739 8 2.24021 8.05268 2.14645 8.14645C2.05268 8.24021 2 8.36739 2 8.5V10C2 10.3978 2.15804 10.7794 2.43934 11.0607C2.72064 11.342 3.10218 11.5 3.5 11.5H8.5C8.89782 11.5 9.27936 11.342 9.56066 11.0607C9.84196 10.7794 10 10.3978 10 10V3C10 2.60218 9.84196 2.22064 9.56066 1.93934C9.27936 1.65804 8.89782 1.5 8.5 1.5Z" fill="#B8B9B6"/>
</svg>
