<svg width="12" height="13" viewBox="0 0 12 13" fill="none" xmlns="http://www.w3.org/2000/svg">
<path d="M7.855 6.85494C8.34519 6.46927 8.70299 5.9404 8.87862 5.34191C9.05424 4.74342 9.03896 4.10507 8.83489 3.51567C8.63083 2.92628 8.24813 2.41514 7.74003 2.05337C7.23194 1.6916 6.62372 1.49719 6 1.49719C5.37627 1.49719 4.76806 1.6916 4.25996 2.05337C3.75187 2.41514 3.36917 2.92628 3.1651 3.51567C2.96104 4.10507 2.94575 4.74342 3.12138 5.34191C3.297 5.9404 3.6548 6.46927 4.145 6.85494C3.30504 7.19146 2.57214 7.74961 2.02444 8.4699C1.47675 9.19018 1.13478 10.0456 1.035 10.9449C1.02778 11.0106 1.03356 11.077 1.05201 11.1405C1.07047 11.2039 1.10123 11.2631 1.14255 11.3146C1.22601 11.4187 1.34739 11.4854 1.48 11.4999C1.61261 11.5145 1.74558 11.4758 1.84966 11.3924C1.95374 11.3089 2.02041 11.1875 2.035 11.0549C2.14479 10.0775 2.61084 9.17485 3.34411 8.51934C4.07737 7.86383 5.02645 7.50145 6.01 7.50145C6.99355 7.50145 7.94262 7.86383 8.67589 8.51934C9.40915 9.17485 9.87521 10.0775 9.985 11.0549C9.99859 11.1778 10.0572 11.2913 10.1496 11.3734C10.2419 11.4556 10.3614 11.5007 10.485 11.4999H10.54C10.6711 11.4849 10.7909 11.4186 10.8733 11.3156C10.9557 11.2125 10.9941 11.0811 10.98 10.9499C10.8797 10.048 10.5359 9.19043 9.98542 8.46904C9.43491 7.74765 8.69845 7.18968 7.855 6.85494ZM6 6.49994C5.60444 6.49994 5.21776 6.38264 4.88886 6.16288C4.55996 5.94312 4.30361 5.63076 4.15224 5.26531C4.00086 4.89986 3.96126 4.49772 4.03843 4.10976C4.1156 3.7218 4.30608 3.36543 4.58578 3.08573C4.86549 2.80602 5.22186 2.61554 5.60982 2.53837C5.99778 2.4612 6.39991 2.50081 6.76537 2.65218C7.13082 2.80356 7.44317 3.0599 7.66294 3.3888C7.8827 3.7177 8 4.10438 8 4.49994C8 5.03037 7.78929 5.53908 7.41421 5.91415C7.03914 6.28923 6.53043 6.49994 6 6.49994Z" fill="#B8B9B6"/>
</svg>
