<svg width="12" height="13" viewBox="0 0 12 13" fill="none" xmlns="http://www.w3.org/2000/svg">
<path d="M4.5 5.5C4.36739 5.5 4.24021 5.55268 4.14645 5.64645C4.05268 5.74021 4 5.86739 4 6V7C4 7.13261 4.05268 7.25979 4.14645 7.35355C4.24021 7.44732 4.36739 7.5 4.5 7.5C4.63261 7.5 4.75979 7.44732 4.85355 7.35355C4.94732 7.25979 5 7.13261 5 7V6C5 5.86739 4.94732 5.74021 4.85355 5.64645C4.75979 5.55268 4.63261 5.5 4.5 5.5ZM10.5 6C10.6326 6 10.7598 5.94732 10.8536 5.85355C10.9473 5.75979 11 5.63261 11 5.5V3.5C11 3.36739 10.9473 3.24021 10.8536 3.14645C10.7598 3.05268 10.6326 3 10.5 3H1.5C1.36739 3 1.24021 3.05268 1.14645 3.14645C1.05268 3.24021 1 3.36739 1 3.5V5.5C1 5.63261 1.05268 5.75979 1.14645 5.85355C1.24021 5.94732 1.36739 6 1.5 6C1.63261 6 1.75979 6.05268 1.85355 6.14645C1.94732 6.24021 2 6.36739 2 6.5C2 6.63261 1.94732 6.75979 1.85355 6.85355C1.75979 6.94732 1.63261 7 1.5 7C1.36739 7 1.24021 7.05268 1.14645 7.14645C1.05268 7.24021 1 7.36739 1 7.5V9.5C1 9.63261 1.05268 9.75979 1.14645 9.85355C1.24021 9.94732 1.36739 10 1.5 10H10.5C10.6326 10 10.7598 9.94732 10.8536 9.85355C10.9473 9.75979 11 9.63261 11 9.5V7.5C11 7.36739 10.9473 7.24021 10.8536 7.14645C10.7598 7.05268 10.6326 7 10.5 7C10.3674 7 10.2402 6.94732 10.1464 6.85355C10.0527 6.75979 10 6.63261 10 6.5C10 6.36739 10.0527 6.24021 10.1464 6.14645C10.2402 6.05268 10.3674 6 10.5 6ZM10 5.09C9.71042 5.1951 9.46023 5.38681 9.28342 5.63908C9.10661 5.89135 9.01176 6.19194 9.01176 6.5C9.01176 6.80806 9.10661 7.10865 9.28342 7.36092C9.46023 7.61319 9.71042 7.8049 10 7.91V9H5C5 8.86739 4.94732 8.74021 4.85355 8.64645C4.75979 8.55268 4.63261 8.5 4.5 8.5C4.36739 8.5 4.24021 8.55268 4.14645 8.64645C4.05268 8.74021 4 8.86739 4 9H2V7.91C2.28958 7.8049 2.53977 7.61319 2.71658 7.36092C2.89339 7.10865 2.98824 6.80806 2.98824 6.5C2.98824 6.19194 2.89339 5.89135 2.71658 5.63908C2.53977 5.38681 2.28958 5.1951 2 5.09V4H4C4 4.13261 4.05268 4.25979 4.14645 4.35355C4.24021 4.44732 4.36739 4.5 4.5 4.5C4.63261 4.5 4.75979 4.44732 4.85355 4.35355C4.94732 4.25979 5 4.13261 5 4H10V5.09Z" fill="#B8B9B6"/>
</svg>
